<?xml version="1.0" encoding="utf-8"?>
<!-- Generator: Adobe Illustrator 16.0.0, SVG Export Plug-In . SVG Version: 6.00 Build 0)  -->
<!DOCTYPE svg PUBLIC "-//W3C//DTD SVG 1.1//EN" "http://www.w3.org/Graphics/SVG/1.1/DTD/svg11.dtd">
<svg version="1.1" id="Calque_1" xmlns="http://www.w3.org/2000/svg" xmlns:xlink="http://www.w3.org/1999/xlink" x="0px" y="0px"
	 width="1024px" height="768px" viewBox="0 0 1024 768" enable-background="new 0 0 1024 768" xml:space="preserve">
<g>
	<g>
		<path fill-rule="evenodd" clip-rule="evenodd" fill="#FDFCFC" d="M366,236c0-24,0-48,0-72c86,0,172,0,258,0c0,121,0,242,0,362.999
			c-86,0-172,0-258,0c0-95.666,0-191.333,0-286.999l0.398,0.083l0.406-0.023c0.395,4.31,0.8,8.619,1.182,12.93
			c2.472,27.858,4.923,55.717,7.412,83.574c2.843,31.835,5.737,63.667,8.572,95.501c1.787,20.064,3.521,40.133,5.239,60.202
			c0.218,2.541,0.915,4.078,3.832,4.874c32.552,8.882,65.055,17.941,97.559,27.001c2.135,0.595,4.054,0.771,6.296,0.144
			c32.171-9.01,64.356-17.97,96.597-26.729c3.663-0.995,5.081-2.576,5.403-6.327c3.238-37.649,6.637-75.284,9.996-112.923
			c3.627-40.623,7.33-81.239,10.825-121.873c0.577-6.703,1.823-13.412,1.29-20.603c-2.275,0-4.248,0-6.22,0
			c-70.966,0-141.932-0.006-212.898,0.005c-11.659,0.002-23.318,0.078-34.978,0.119C366.603,235.863,366.299,235.877,366,236z
			 M496.822,164.993c0,16.533,0,32.423,0,48.257c5.316,0,10.23,0,15.617,0c0-7.531,0-14.74,0-21.95
			c0.289-0.087,0.577-0.175,0.865-0.262c3.36,5.137,6.72,10.275,10.365,15.85c3.785-5.782,7.176-10.961,10.566-16.141
			c0.291,0.102,0.582,0.205,0.874,0.307c0,7.392,0,14.783,0,22.246c5.523,0,10.614,0,15.703,0c0-16.198,0-32.115,0-48.306
			c-4.907,0-9.553,0.145-14.182-0.062c-2.315-0.103-3.153,1.187-4.128,2.82c-2.782,4.658-5.674,9.251-8.74,14.224
			c-3.216-5.296-6.094-9.966-8.894-14.683c-0.907-1.528-1.886-2.428-3.887-2.354C506.331,165.11,501.668,164.993,496.822,164.993z
			 M390.408,165.205c0,16.28,0,32.151,0,48.141c5.393,0,10.473,0,15.623,0c0.963-5.443-0.41-10.795,0.76-15.793
			c4.971,0,9.554,0,14.525,0c0,5.416,0,10.508,0,15.828c5.472,0,10.545,0,15.817,0c0-16.223,0-32.212,0-48.108
			c-5.46,0-10.55,0-16.067,0c0,5.329,0,10.395,0,15.542c-5.032,0-9.624,0-14.642,0c0-5.254,0-10.333,0-15.609
			C400.899,165.205,395.799,165.205,390.408,165.205z M459.024,181.083c0,11.177,0,21.628,0,32.305c5.396,0,10.483,0,16.026,0
			c0-10.784,0-21.362,0-32.451c5.012,0,9.577,0,13.904,0c0-5.6,0-10.671,0-15.699c-14.943,0-29.551,0-44.135,0
			c0,5.328,0,10.409,0,15.845C449.501,181.083,453.942,181.083,459.024,181.083z M598.012,197.343c-7.559,0-14.951,0-22.656,0
			c0-11.081,0-21.532,0-32.024c-5.566,0-10.783,0-15.881,0c0,16.206,0,32.083,0,47.924c13.062,0,25.766,0,38.537,0
			C598.012,207.899,598.012,202.937,598.012,197.343z"/>
		<path fill-rule="evenodd" clip-rule="evenodd" fill="#F7CFC4" d="M366,236c0.299-0.123,0.603-0.137,0.913-0.044
			c-0.036,1.368-0.072,2.736-0.108,4.104l-0.406,0.023L366,240C366,238.667,366,237.333,366,236z"/>
		<path fill-rule="evenodd" clip-rule="evenodd" fill="#E34D27" d="M366.805,240.06c0.036-1.368,0.072-2.736,0.108-4.104
			c11.659-0.042,23.318-0.117,34.978-0.119c70.966-0.011,141.932-0.005,212.898-0.005c1.972,0,3.944,0,6.22,0
			c0.533,7.19-0.713,13.9-1.29,20.603c-3.495,40.634-7.198,81.25-10.825,121.873c-3.359,37.639-6.758,75.273-9.996,112.923
			c-0.322,3.751-1.74,5.332-5.403,6.327c-32.24,8.76-64.426,17.72-96.597,26.729c-2.242,0.628-4.161,0.451-6.296-0.144
			c-32.503-9.06-65.007-18.119-97.559-27.001c-2.917-0.796-3.614-2.333-3.832-4.874c-1.718-20.069-3.452-40.138-5.239-60.202
			c-2.835-31.835-5.729-63.666-8.572-95.501c-2.488-27.856-4.94-55.716-7.412-83.574C367.604,248.679,367.199,244.37,366.805,240.06
			z M571.024,320.9c0.98-10.73,1.928-21.091,2.887-31.585c-53.488,0-106.554,0-159.872,0c0.148,2.013,0.247,3.659,0.393,5.301
			c2.548,28.526,5.208,57.043,7.539,85.587c0.35,4.281,1.498,5.542,5.87,5.522c33.161-0.148,66.322-0.024,99.482,0.055
			c1.769,0.005,3.639-0.495,5.709,0.76c-1.104,12.771-2.231,25.669-3.322,38.57c-0.168,1.984-1.706,2.309-3.115,2.69
			c-10.111,2.741-20.238,5.424-30.354,8.147c-1.998,0.538-3.926,0.348-5.895-0.191c-9.461-2.592-18.906-5.254-28.423-7.631
			c-2.934-0.733-3.844-2.043-4.122-5.045c-0.651-7.055-0.627-14.215-2.245-21.052c-10.589,0-20.844,0-31.371,0
			c0.093,1.788,0.122,3.253,0.253,4.709c1.185,13.101,2.6,26.186,3.46,39.307c0.271,4.138,1.513,5.973,5.607,7.051
			c18.166,4.786,36.322,9.654,54.277,15.161c4.495,1.379,8.207,1.104,12.383-0.075c17.922-5.058,35.828-10.187,53.855-14.846
			c4.392-1.135,5.712-3.016,6.053-7.344c1.686-21.413,3.748-42.795,5.645-64.191c0.815-9.214,1.55-18.435,2.356-28.081
			c-39.047,0-77.471,0-116.364,0c-0.985-11.019-1.94-21.692-2.936-32.82C489.876,320.9,530.296,320.9,571.024,320.9z"/>
		<path fill-rule="evenodd" clip-rule="evenodd" fill="#060606" d="M496.822,164.993c4.846,0,9.509,0.118,14.161-0.055
			c2.001-0.074,2.979,0.826,3.887,2.354c2.8,4.717,5.678,9.387,8.894,14.683c3.066-4.973,5.958-9.566,8.74-14.224
			c0.975-1.633,1.813-2.923,4.128-2.82c4.629,0.207,9.274,0.062,14.182,0.062c0,16.191,0,32.108,0,48.306c-5.089,0-10.18,0-15.703,0
			c0-7.463,0-14.854,0-22.246c-0.292-0.103-0.583-0.205-0.874-0.307c-3.391,5.18-6.781,10.359-10.566,16.141
			c-3.646-5.575-7.005-10.712-10.365-15.85c-0.288,0.087-0.576,0.174-0.865,0.262c0,7.209,0,14.418,0,21.95
			c-5.387,0-10.301,0-15.617,0C496.822,197.416,496.822,181.526,496.822,164.993z"/>
		<path fill-rule="evenodd" clip-rule="evenodd" fill="#060606" d="M390.408,165.205c5.392,0,10.492,0,16.016,0
			c0,5.276,0,10.354,0,15.609c5.018,0,9.609,0,14.642,0c0-5.147,0-10.213,0-15.542c5.517,0,10.606,0,16.067,0
			c0,15.896,0,31.885,0,48.108c-5.272,0-10.345,0-15.817,0c0-5.319,0-10.412,0-15.828c-4.971,0-9.554,0-14.525,0
			c-1.17,4.999,0.204,10.351-0.76,15.793c-5.149,0-10.229,0-15.623,0C390.408,197.356,390.408,181.485,390.408,165.205z"/>
		<path fill-rule="evenodd" clip-rule="evenodd" fill="#060606" d="M459.024,181.083c-5.082,0-9.522,0-14.205,0
			c0-5.436,0-10.517,0-15.845c14.583,0,29.192,0,44.135,0c0,5.028,0,10.1,0,15.699c-4.327,0-8.892,0-13.904,0
			c0,11.089,0,21.667,0,32.451c-5.543,0-10.63,0-16.026,0C459.024,202.711,459.024,192.26,459.024,181.083z"/>
		<path fill-rule="evenodd" clip-rule="evenodd" fill="#060606" d="M598.012,197.343c0,5.594,0,10.556,0,15.899
			c-12.771,0-25.476,0-38.537,0c0-15.84,0-31.718,0-47.924c5.098,0,10.314,0,15.881,0c0,10.493,0,20.943,0,32.024
			C583.061,197.343,590.453,197.343,598.012,197.343z"/>
		<path fill-rule="evenodd" clip-rule="evenodd" fill="#FDFCFC" d="M571.024,320.9c-40.729,0-81.148,0-122.248,0
			c0.996,11.128,1.95,21.801,2.936,32.82c38.894,0,77.317,0,116.364,0c-0.807,9.646-1.541,18.867-2.356,28.081
			c-1.896,21.396-3.959,42.778-5.645,64.191c-0.341,4.328-1.661,6.209-6.053,7.344c-18.027,4.659-35.934,9.788-53.855,14.846
			c-4.176,1.179-7.888,1.454-12.383,0.075c-17.955-5.507-36.111-10.375-54.277-15.161c-4.094-1.078-5.335-2.913-5.607-7.051
			c-0.86-13.121-2.275-26.206-3.46-39.307c-0.131-1.456-0.16-2.921-0.253-4.709c10.526,0,20.781,0,31.371,0
			c1.618,6.837,1.594,13.997,2.245,21.052c0.277,3.002,1.188,4.312,4.122,5.045c9.517,2.377,18.961,5.039,28.423,7.631
			c1.969,0.539,3.896,0.729,5.895,0.191c10.116-2.724,20.242-5.406,30.354-8.147c1.409-0.382,2.947-0.706,3.115-2.69
			c1.091-12.901,2.219-25.8,3.322-38.57c-2.07-1.255-3.94-0.755-5.709-0.76c-33.16-0.079-66.322-0.203-99.482-0.055
			c-4.372,0.02-5.52-1.241-5.87-5.522c-2.331-28.544-4.991-57.061-7.539-85.587c-0.146-1.642-0.245-3.288-0.393-5.301
			c53.318,0,106.383,0,159.872,0C572.952,299.809,572.005,310.169,571.024,320.9z"/>
	</g>
</g>
</svg>
