<?xml version="1.0" encoding="utf-8"?>
<!-- Generator: Adobe Illustrator 16.0.0, SVG Export Plug-In . SVG Version: 6.00 Build 0)  -->
<!DOCTYPE svg PUBLIC "-//W3C//DTD SVG 1.1//EN" "http://www.w3.org/Graphics/SVG/1.1/DTD/svg11.dtd">
<svg version="1.1" id="Calque_1" xmlns="http://www.w3.org/2000/svg" xmlns:xlink="http://www.w3.org/1999/xlink" x="0px" y="0px"
	 width="1024px" height="768px" viewBox="0 0 1024 768" enable-background="new 0 0 1024 768" xml:space="preserve">
<g>
	<g>
		<path fill-rule="evenodd" clip-rule="evenodd" fill="#FDFDFD" d="M416.741,254.741c64.193,0,128.387,0,192.582,0
			c0,86.662,0,173.323,0,259.985c-64.194,0-128.388,0-192.581,0C416.741,428.063,416.741,341.402,416.741,254.741z M521.174,477.854
			c0.978-0.157,1.505-0.861,1.801-1.685c3.813-10.624,9.418-20.558,12.236-31.554c0.489-1.906,1.115-2.746,3.224-3.158
			c10.794-2.107,19.338-7.692,24.76-17.421c1.271-2.282,2.584-3.972,5.182-4.644c2.301-0.595,3.79-2.06,4.172-4.588
			c0.872-5.788,0.374-11.449-1.722-16.882c-2.131-5.522-0.596-10.702,4.197-14.091c6.516-4.608,13.078-9.176,18.47-15.176
			c2.011-2.238,2.025-4.425,0.761-7.071c-2.564-5.367-7.675-6.839-12.608-8.482c-4.588-1.528-9.395-1.245-14.345-0.607
			c-0.74-3.609-1.425-6.948-2.157-10.52c4.119-1.546,6.174-4.997,8.165-8.596c3.746-6.772,5.979-14.084,6.927-21.649
			c1.205-9.629,0.837-19.196-4.355-27.948c-1.062-1.791-2.175-3.25-4.355-3.536c-0.567-1.527-2.646-0.6-3.278-2.021
			c0.94-3.507,0.165-4.354-3.563-3.891c0.19-1.606-0.319-2.777-1.488-3.187c-1.799-0.032-1.677,1.865-3.004,1.834
			c-0.718-0.65-0.993-1.757-2.096-1.973c0.218-2.895-2.271-2.484-3.822-2.94c-6.42-1.889-12.666,0.383-18.957,1.101
			c-6.825,0.779-12.892,3.46-18.266,7.874c-7.523,6.179-7.617,6.108-16.061,1.127c-7.098-4.186-14.718-7.933-22.868-7.698
			c-13.014,0.375-24.345,5.926-32.503,16.254c-10.925,13.829-13.816,31.197-2.385,46.936c4.143,5.704,5.442,6.273,12.089,4.274
			c0.467-0.141,0.971-0.158,1.458-0.232c3.709,1.728,0.005,3.339-0.079,5.007c-5.403-0.203-7.076,0.898-7.913,5.907
			c-1.88,11.254-4.021,22.491-5.231,33.822c-0.926,8.668-1.524,17.439-1.015,26.209c0.307,5.272,1.488,6.82,6.528,7.621
			c6.688,1.063,13.381,2.176,20.113,2.861c4.015,0.408,3.604,3.894,4.987,6.084c1.283,2.029-0.973,2.569-2.016,3.62
			c-1.736,1.748-3.591,3.438-5.005,5.432c-3.729,5.256-4.132,11.154-1.304,16.721c2.689,5.292,7.982,6.446,13.578,6.259
			c1.93-0.065,3.864-0.011,5.717-0.011c0.667,1.181,0.204,2.077,0.002,3.031c-2.071,9.771-5.737,19.035-8.985,28.432
			c-2.526,7.312-1.333,8.717,6.257,10.588c7.591,1.872,15.428,1.207,23.155,1.697c3.022,0.191,5.021-0.489,4.975-4.089
			c1.241,0.271,2.203,0.433,3.136,0.694c7.431,2.082,15.111,1.746,22.691,2.378c1.861,0.155,2.972-0.745,3.747-2.366
			c0.883-1.847-0.726-2.505-1.626-3.256c-3.947-3.291-7.848-6.642-12.584-8.867c-2.108-0.99-4.606-1.592-5.849-3.943
			C521.925,480.761,521.116,479.177,521.174,477.854z"/>
		<path fill-rule="evenodd" clip-rule="evenodd" fill="#C3A7D0" d="M456.702,342.713c0.083-1.668,3.788-3.279,0.079-5.007
			c-0.467-2.678-2.33-4.526-3.986-6.444c-1.226-1.419-2.268-2.884-3.016-4.604c-4.265-9.809-5.038-19.815-1.138-29.852
			c3.021-7.777,7.101-15.126,14.467-19.554c8.69-5.222,17.955-5.063,27.39-1.555c8.24,3.063,15.788,7.462,23.495,11.551
			c2.512,1.333,3.938,0.699,5.71-1.139c3.77-3.907,7.912-7.417,12.605-10.202c5.725-3.398,11.464-6.674,18.585-5.703
			c2.386,0.326,4.724,1.287,7.204,0.805c1.103,0.215,1.378,1.323,2.096,1.973c1.327,0.031,1.205-1.866,3.004-1.834
			c1.169,0.41,1.679,1.58,1.488,3.187c3.728-0.463,4.503,0.384,3.561,3.893c0.634,1.418,2.713,0.491,3.281,2.018
			c0.404,1.293,0.594,2.708,1.249,3.857c3.617,6.342,4.446,13.385,4.532,20.389c0.151,12.361-2.639,24.034-11.274,33.425
			c-2.231,2.427-3.711,4.962-2.967,7.798c1.646,6.265-1.264,8.646-6.738,10.177c-4.902,1.372-8.9,4.869-13.973,7.442
			c1.557-4.382,4.477-7.781,3.241-12.351c-5.004,8.663-10.238,16.877-20.415,20.798c3.308,1.974,5.761-0.514,8.603,0.163
			c-6.495,9.269-13.764,17.714-14.31,29.381c-3.533-0.328-7.202-1.963-9.789,1.769c2.189-0.468,4.423-0.907,6.407,0.293
			c5.425,3.281,9.146,8.104,11.587,13.872c1.092,2.58-1.174,3.897-2.585,5.583c-1.555,1.854-2.756,0.321-3.861-0.21
			c-5.394-2.593-9.655-6.332-11.696-12.207c-0.482-1.389-0.881-3.013-2.675-3.553c-0.654,1.71-0.204,3.157,0.321,4.524
			c5.383,14.009,22.04,22.901,36.837,13.036c9.181-6.121,14.156-15.114,15.763-25.726c0.718-4.738,3.389-6.535,7.338-8.423
			c1.238,9.365-0.157,18.133-3.765,26.305c-7.633,17.295-22.79,25.98-40.969,21.157c-2.137-0.567-4.379-1.367-5.192,2.002
			c-0.176,0.727-1.447,1.259-2.292,1.743c-11.625,6.662-25.113,2.918-32.903-9.581c-7.552-12.116-11.71-25.548-14.225-39.55
			c-1.599-8.904-3.228-17.814-5.883-26.489c-0.368-1.201-0.395-2.684-3.071-3.431c2.997,17.048,5.306,33.606,9.696,49.989
			c-4.434,0.323-8.409-0.818-12.455-1.014c-1.788-0.087-2.284-1.235-2.494-2.985c-1.08-9.02-0.455-17.988,0.621-26.939
			c1.398-11.629,2.975-23.238,4.361-34.871C458.726,345.148,459.343,343.045,456.702,342.713z M492.291,325.764
			c-0.239,1.05-0.582,2.089-0.698,3.153c-0.676,6.205-3.082,7.77-9.045,5.851c-2.118-0.681-4.024-2.102-6.697-2.084
			c1.353,3.209,4.037,4.289,6.626,5.181c2.044,0.705,3.26,1.715,4.016,3.774c3.346,9.12,10.016,15.604,17.711,20.988
			c12.417,8.687,27.5,5.811,34.952-7.734c2.41-4.38,3.65-9.098,4.969-13.902c1.513-0.228,2.994-0.319,4.402-0.688
			c5.914-1.545,8.294-7.327,5.187-12.426c-1.056-1.732-2.509-3.077-4.265-4.005c-1.228-0.649-1.85-1.325-1.729-2.831
			c0.39-4.876-0.907-9.045-3.948-13.167c-3.883-5.263-8.706-7.579-15.069-5.901c-3.751,0.989-6.219,3.688-8.886,6.104
			c-8.728-8.415-23.062-6.914-29.996,9.34c-1.635-1.309-2.381-4.161-5.969-3.074c2.676,3.226,5.138,6.194,7.6,9.163
			C491.732,324.258,492.011,325.011,492.291,325.764z M471.525,369.402c0,2.201-0.217,3.827,0.036,5.375
			c1.38,8.449,1.665,17.068,4.588,25.278c3.382,9.499,5.757,19.377,11.838,27.736c3.183,4.374,6.593,8.377,12.159,9.6
			c4.433,0.974,8.4-0.452,12.973-2.581c-3.607-2.02-5.251-4.771-7.214-7.233c-2.007-2.516-3.695-5.225-5.056-8.152
			c-4.259-9.153-3.055-14.939,4.636-21.177c-1.782-0.789-3.316-0.211-4.517,0.715c-4.529,3.495-6.131,8.399-5.902,14.004
			c-2.091,0-3.809-0.118-5.504,0.024c-3.598,0.303-5.169-1.126-6.396-4.749c-3.656-10.798-5.624-21.949-7.994-33.027
			C474.722,373.108,474.373,370.882,471.525,369.402z M510.866,293.799c-0.394-1.314-1.204-2.203-2.224-2.951
			c-7.332-5.381-20.736,0.428-21.868,9.445c-0.145,1.154-0.015,2.032,1.16,2.311c1.222,0.291,2.171,0.226,2.987-1.259
			c4.611-8.389,8.599-9.814,17.218-6.388C509.561,295.522,510.492,295.368,510.866,293.799z M490.659,354.337
			c-0.689,8.369,13.357,20.095,20.033,17.845C502.747,368.082,496.669,361.978,490.659,354.337z M541.949,294.267
			c-0.09-3.957-2.064-5.423-4.49-6.248c-4.476-1.523-11.815,1.217-13.986,5.069c-0.75,1.331-1.891,2.827,0.75,3.817
			C529.059,291.769,534.557,289.593,541.949,294.267z M515.811,406.603c-1.705,0.657-2.159,1.784-1.892,3.494
			c0.624,3.993,3.337,6.428,6.298,8.664c1.246,0.941,2.595,0.678,3.672-0.409c1.07-1.081,1.361-2.319,0.298-3.612
			c-2.181-2.655-4.436-5.241-7.098-7.435C516.723,407.003,516.246,406.837,515.811,406.603z M471.361,363.247
			c-1.347,0.403-1.917,1.404-2.096,2.692c-0.146,1.042,0.33,1.712,1.378,1.68c1.618-0.05,1.776-1.504,2.08-2.605
			C472.984,364.066,472.365,363.424,471.361,363.247z M469.554,359.336c-0.842,0.06-1.315,0.58-1.468,1.355
			c-0.185,0.936,0.338,1.34,1.218,1.333c0.81-0.007,1.426-0.325,1.513-1.22C470.903,359.911,470.388,359.484,469.554,359.336z"/>
		<path fill-rule="evenodd" clip-rule="evenodd" fill="#282B47" d="M456.702,342.713c2.642,0.332,2.024,2.435,1.849,3.91
			c-1.387,11.632-2.963,23.241-4.361,34.871c-1.076,8.951-1.701,17.919-0.621,26.939c0.209,1.75,0.706,2.898,2.494,2.985
			c4.046,0.195,8.021,1.337,12.455,1.014c-4.391-16.383-6.7-32.941-9.696-49.989c2.676,0.748,2.703,2.23,3.071,3.431
			c2.656,8.674,4.284,17.585,5.883,26.489c2.515,14.002,6.673,27.434,14.225,39.55c7.79,12.499,21.278,16.243,32.903,9.581
			c0.845-0.484,2.116-1.017,2.292-1.743c0.813-3.369,3.056-2.569,5.192-2.002c18.179,4.823,33.336-3.862,40.969-21.157
			c3.607-8.172,5.003-16.939,3.765-26.305c-3.949,1.888-6.62,3.685-7.338,8.423c-1.606,10.611-6.582,19.604-15.763,25.726
			c-14.797,9.865-31.454,0.973-36.837-13.036c-0.525-1.367-0.976-2.814-0.321-4.524c1.794,0.54,2.193,2.164,2.675,3.553
			c2.041,5.875,6.302,9.614,11.696,12.207c1.105,0.531,2.307,2.064,3.861,0.21c1.411-1.686,3.677-3.003,2.585-5.583
			c-2.441-5.768-6.162-10.591-11.587-13.872c-1.984-1.2-4.218-0.761-6.407-0.293c2.587-3.731,6.256-2.097,9.789-1.769
			c0.546-11.667,7.814-20.112,14.31-29.381c-2.842-0.676-5.295,1.812-8.603-0.163c10.177-3.92,15.411-12.135,20.415-20.798
			c1.235,4.569-1.685,7.968-3.241,12.351c5.072-2.573,9.07-6.071,13.973-7.442c5.475-1.531,8.384-3.913,6.738-10.177
			c-0.744-2.836,0.735-5.372,2.967-7.798c8.636-9.392,11.426-21.064,11.274-33.425c-0.086-7.003-0.915-14.046-4.532-20.389
			c-0.655-1.149-0.845-2.564-1.249-3.857c2.18,0.286,3.293,1.745,4.354,3.536c5.192,8.752,5.561,18.319,4.355,27.948
			c-0.947,7.565-3.181,14.877-6.927,21.649c-1.991,3.599-4.046,7.05-8.165,8.596c0.732,3.571,1.417,6.911,2.157,10.52
			c4.95-0.637,9.757-0.92,14.345,0.607c4.934,1.643,10.044,3.115,12.608,8.482c1.265,2.646,1.25,4.833-0.761,7.071
			c-5.392,6-11.954,10.568-18.47,15.176c-4.793,3.389-6.328,8.569-4.197,14.091c2.096,5.433,2.594,11.094,1.722,16.882
			c-0.382,2.528-1.871,3.993-4.172,4.588c-2.598,0.672-3.91,2.361-5.182,4.644c-5.422,9.729-13.966,15.313-24.76,17.421
			c-2.108,0.412-2.734,1.252-3.224,3.158c-2.818,10.996-8.423,20.93-12.236,31.554c-0.296,0.823-0.823,1.527-1.801,1.685
			c0.765-8.007,4.352-15.306,5.97-23.116c-4.997-0.69-7.633,0.333-8.188,3.298c-1.272,6.807-3.503,13.342-5.433,19.965
			c-1.275,4.374-2.523,8.762-3.589,13.189c-0.547,2.272-0.243,3.793,2.99,3.941c7.744,0.355,15.463,1.271,23.194,1.939
			c0.797,0.068,1.753,0.48,2.253-0.715c-0.167-1.357-1.39-1.853-2.291-2.631c-3.707-3.205-8.473-4.469-12.609-6.889
			c-2.087-1.221-4.007-2.414-3.41-5.3c1.242,2.352,3.74,2.953,5.849,3.943c4.736,2.226,8.637,5.576,12.584,8.867
			c0.9,0.751,2.509,1.409,1.626,3.256c-0.775,1.621-1.886,2.521-3.747,2.366c-7.58-0.632-15.261-0.296-22.691-2.378
			c-0.933-0.262-1.895-0.423-3.136-0.694c0.046,3.6-1.953,4.28-4.975,4.089c-7.727-0.49-15.563,0.175-23.155-1.697
			c-7.59-1.871-8.784-3.276-6.257-10.588c3.248-9.396,6.914-18.661,8.985-28.432c0.202-0.954,0.665-1.851-0.002-3.031
			c-1.854,0-3.787-0.055-5.717,0.011c-5.596,0.188-10.889-0.967-13.578-6.259c-2.828-5.566-2.425-11.465,1.304-16.721
			c1.414-1.993,3.27-3.684,5.005-5.432c1.043-1.051,3.299-1.591,2.016-3.62c-1.384-2.19-0.972-5.676-4.987-6.084
			c-6.732-0.686-13.425-1.799-20.113-2.861c-5.04-0.801-6.222-2.349-6.528-7.621c-0.509-8.771,0.089-17.541,1.015-26.209
			c1.21-11.331,3.351-22.568,5.231-33.822C449.625,343.612,451.298,342.51,456.702,342.713z M504.103,491.544
			c0.938-0.073,1.752,0.878,2.685,0.402c3.205-16.03,10.625-30.923,12.103-47.777c-5.523,3.232-11.173,4.589-16.495,4.899
			c-5.166,10.535-6.576,21.959-12.202,31.844c3.621,2.657,7.249,5.32,10.876,7.984c-3.931,2.249-5.284-2.382-8.142-3.179
			c-1.669-0.465-4.153-1.473-3.771-4.276c0.448-3.281,0.933-6.542,2.015-9.713c1.049-3.072,1.804-6.247,2.697-9.409
			c-5.738-1.017-6.29-0.648-7.61,4.386c-0.436,1.662-1.059,3.274-1.551,4.923c-2.041,6.84-4.129,13.667-6.039,20.544
			c-0.374,1.345-1.209,3.331,1.193,3.95c9.227,2.374,18.626,2.534,28.229,2.466C508.057,495.176,504.055,494.523,504.103,491.544z
			 M525.559,408.094c2.096-2.27,3.317-4.777,4.386-7.367c2.097-5.08,4.965-9.322,10.81-10.603c1.674-0.366,3.271-1.067,4.938-1.478
			c4.014-0.986,7.204-3.113,9.334-6.671c3.268-5.458,6.729-10.664,13.508-12.229c2.639-0.61,5.282-1.204,7.914-1.843
			c3.813-0.926,7.804-1.354,11.17-3.609c1.278-0.855,3.291-1.42,3.187-3.238c-0.109-1.916-2.102-2.596-3.604-3.376
			c-5.913-3.07-12.291-4.24-18.658-2.45c-11.171,3.141-21.412,8.192-29.092,17.298c-7.627,9.042-14.915,18.318-18.053,30.354
			C522.785,404.171,524.308,405.889,525.559,408.094z M488.349,444.903c-5.906-3.778-9.145-9.403-12.697-15.005
			c-3.55,3.418-6.25,6.828-8.03,10.952c-0.604,1.402-0.811,2.432,0.724,3.422C475.03,448.587,479.495,451.034,488.349,444.903z
			 M529.53,413.8c0.334,1.062,1.059,1.449,1.997,1.462c5.179,0.072,10.358,0.14,15.539,0.167c0.44,0.002,1.066-0.159,1.296-0.472
			c3.697-5.04,6.703-10.366,7.123-17.505C546.616,403.377,538.627,409.306,529.53,413.8z M569.088,407.836
			c-0.114,2.586-0.453,5.048-1.772,7.291C570.941,415.263,571.638,412.862,569.088,407.836z"/>
		<path fill-rule="evenodd" clip-rule="evenodd" fill="#282B47" d="M558.096,271.011c-2.48,0.481-4.818-0.479-7.204-0.805
			c-7.121-0.971-12.86,2.305-18.585,5.703c-4.693,2.786-8.836,6.295-12.605,10.202c-1.772,1.837-3.198,2.472-5.71,1.139
			c-7.707-4.089-15.255-8.488-23.495-11.551c-9.436-3.508-18.7-3.667-27.39,1.555c-7.366,4.428-11.446,11.777-14.467,19.554
			c-3.899,10.037-3.127,20.043,1.138,29.852c0.748,1.719,1.791,3.185,3.016,4.604c1.656,1.917,3.52,3.766,3.986,6.444
			c-0.487,0.075-0.991,0.091-1.458,0.232c-6.646,1.999-7.946,1.43-12.089-4.274c-11.431-15.739-8.54-33.107,2.385-46.936
			c8.158-10.328,19.49-15.879,32.503-16.254c8.15-0.235,15.77,3.512,22.868,7.698c8.444,4.98,8.538,5.052,16.061-1.127
			c5.374-4.413,11.44-7.095,18.266-7.874c6.291-0.718,12.537-2.99,18.957-1.101C555.824,268.527,558.313,268.116,558.096,271.011z"
			/>
		<path fill-rule="evenodd" clip-rule="evenodd" fill="#C3A7D0" d="M520.061,481.537c-0.597,2.886,1.323,4.079,3.41,5.3
			c4.137,2.42,8.902,3.684,12.609,6.889c0.901,0.778,2.124,1.273,2.291,2.631c-0.5,1.195-1.456,0.783-2.253,0.715
			c-7.731-0.668-15.45-1.584-23.194-1.939c-3.232-0.148-3.537-1.669-2.99-3.941c1.066-4.428,2.314-8.815,3.589-13.189
			c1.93-6.623,4.16-13.158,5.433-19.965c0.555-2.965,3.19-3.988,8.188-3.298c-1.618,7.811-5.205,15.109-5.97,23.116
			C521.116,479.177,521.925,480.761,520.061,481.537z"/>
		<path fill-rule="evenodd" clip-rule="evenodd" fill="#282B47" d="M491.453,323.505c-2.462-2.969-4.924-5.937-7.6-9.163
			c3.588-1.086,4.334,1.766,5.969,3.074c6.934-16.253,21.268-17.754,29.996-9.339c2.667-2.416,5.135-5.115,8.886-6.104
			c6.363-1.678,11.187,0.638,15.069,5.901c3.041,4.122,4.338,8.291,3.948,13.167c-0.121,1.506,0.501,2.182,1.729,2.831
			c1.756,0.929,3.209,2.273,4.265,4.005c3.107,5.099,0.728,10.881-5.187,12.426c-1.408,0.368-2.89,0.459-4.402,0.688
			c-1.318,4.804-2.559,9.522-4.969,13.902c-7.452,13.545-22.535,16.421-34.952,7.734c-7.696-5.384-14.365-11.869-17.711-20.988
			c-0.755-2.059-1.972-3.069-4.016-3.774c-2.59-0.892-5.273-1.971-6.626-5.181c2.673-0.018,4.579,1.403,6.697,2.084
			c5.963,1.918,8.369,0.354,9.045-5.851c0.116-1.064,0.459-2.103,0.697-3.153c1.052,0.312,1.229,1.268,1.739,2.076
			c2.875,4.547,5.55,9.148,12.357,8.43c5.697-0.601,11.725-4.908,13.655-10.869c2.186-6.743,0.363-13.518-4.563-16.972
			c-5.206-3.649-11.49-3.363-17.155,1.029c-2.907,2.253-5.062,5.178-6.481,8.64C491.1,319.905,493.176,321.83,491.453,323.505z
			 M501.159,346.611c-0.107-0.157-0.214-0.313-0.322-0.47c-0.035,0.104-0.07,0.208-0.104,0.312c0.163,0.025,0.326,0.05,0.489,0.076
			c0.235,4.048,2.126,6.799,6.095,8.076c5.441,1.749,10.81,2.77,16.646,1.556c5.846-1.216,8.169-3.296,8.185-9.493
			c-5.128,4.185-11.036,4.708-17.146,4.401C509.988,350.815,505.702,348.318,501.159,346.611z M523.342,326.349
			c-1.726,2.283-1.726,2.283-0.593,3.788c5.145,6.842,14.572,6.159,18.596-1.437c2.976-5.614,3.39-11.273,0.469-17.216
			c-4.155-8.454-13.066-9.387-18.735-1.788c-1.215,1.629-1.44,2.966,0.517,4.481c0.971-1.22,1.765-2.435,2.768-3.44
			c3.134-3.142,9.823-3.779,10.452-0.899c-0.684,0.496-1.424,1.032-2.378,1.724c2.807,2.255,2.028,4.273-0.772,5.954
			c2.661,2.359,4.739,4.537,0.032,6.31c2.014,2.294,2.014,2.294,4.409,3.06C532.673,331.681,530.638,331.625,523.342,326.349z
			 M496.953,337.398c7.992,7.526,16.994,11.962,28.328,8.816c5.054-1.402,9.274-5.374,9.876-9.285
			c-6.042,1.394-11.182-0.168-15.209-4.815C511.912,339.263,508.841,339.914,496.953,337.398z M538.759,335.913
			c2.606,1.426,5.172,1.526,7.75,1.17c2.331-0.322,4.706-0.726,5.169-3.74c0.53-3.45-1.103-5.617-4.029-7.108
			c-1.433-0.729-3.005,0.381-2.974,1.014C544.892,331.592,540.927,332.882,538.759,335.913z"/>
		<path fill-rule="evenodd" clip-rule="evenodd" fill="#282B47" d="M471.525,369.402c2.847,1.48,3.197,3.706,3.648,5.813
			c2.371,11.078,4.338,22.229,7.994,33.027c1.227,3.623,2.798,5.052,6.396,4.749c1.696-0.143,3.413-0.024,5.504-0.024
			c-0.229-5.604,1.373-10.509,5.902-14.004c1.2-0.926,2.734-1.504,4.517-0.715c-7.691,6.237-8.895,12.023-4.636,21.177
			c1.361,2.928,3.049,5.637,5.056,8.152c1.962,2.462,3.606,5.214,7.214,7.233c-4.573,2.129-8.541,3.555-12.973,2.581
			c-5.566-1.223-8.977-5.226-12.159-9.6c-6.082-8.359-8.457-18.237-11.838-27.736c-2.923-8.21-3.208-16.829-4.588-25.278
			C471.309,373.229,471.525,371.604,471.525,369.402z M490.157,423.211c3.454,6.372,7.757,9.872,11.739,9.645
			C500.787,424.718,495.481,420.198,490.157,423.211z"/>
		<path fill-rule="evenodd" clip-rule="evenodd" fill="#FDFDFD" d="M491.453,323.505c1.724-1.676-0.353-3.6,0.389-5.406
			c1.42-3.462,3.575-6.387,6.481-8.64c5.665-4.392,11.949-4.679,17.155-1.029c4.927,3.454,6.749,10.229,4.563,16.972
			c-1.931,5.961-7.958,10.268-13.655,10.869c-6.807,0.718-9.481-3.883-12.357-8.43c-0.51-0.808-0.687-1.765-1.739-2.076
			C492.011,325.011,491.732,324.258,491.453,323.505z M509.613,310.018c-4-0.768-7.286-1.411-9.992,1.581
			c-4.431,4.896-4.348,13.738,0.139,18.639c2.314,2.527,5.324,3.062,8.424,2.41c2.709-0.569,4.602-2.427,6.273-5.734
			c-3.129,1.019-5.636,2.702-7.092-0.77c5.333-2.549,5.31-3.527-0.378-7.642C511.458,316.776,506.669,312.861,509.613,310.018z"/>
		<path fill-rule="evenodd" clip-rule="evenodd" fill="#282B47" d="M510.866,293.799c-0.375,1.568-1.305,1.723-2.726,1.158
			c-8.619-3.426-12.607-2.001-17.218,6.388c-0.816,1.485-1.766,1.549-2.987,1.259c-1.175-0.279-1.305-1.157-1.16-2.311
			c1.132-9.017,14.536-14.826,21.868-9.445C509.663,291.597,510.473,292.485,510.866,293.799z"/>
		<path fill-rule="evenodd" clip-rule="evenodd" fill="#282B47" d="M490.659,354.337c6.01,7.641,12.088,13.745,20.033,17.845
			C504.016,374.432,489.97,362.706,490.659,354.337z"/>
		<path fill-rule="evenodd" clip-rule="evenodd" fill="#282B47" d="M541.949,294.267c-7.393-4.673-12.891-2.498-17.727,2.639
			c-2.641-0.99-1.5-2.487-0.75-3.817c2.171-3.853,9.511-6.593,13.986-5.069C539.885,288.844,541.859,290.31,541.949,294.267z"/>
		<path fill-rule="evenodd" clip-rule="evenodd" fill="#282B47" d="M515.811,406.603c0.436,0.234,0.912,0.4,1.278,0.702
			c2.662,2.193,4.917,4.779,7.098,7.435c1.063,1.293,0.772,2.531-0.298,3.612c-1.077,1.087-2.426,1.351-3.672,0.409
			c-2.961-2.236-5.674-4.671-6.298-8.664C513.651,408.387,514.105,407.26,515.811,406.603z"/>
		<path fill-rule="evenodd" clip-rule="evenodd" fill="#282B47" d="M471.361,363.247c1.004,0.177,1.623,0.819,1.362,1.766
			c-0.304,1.102-0.461,2.556-2.08,2.605c-1.049,0.033-1.524-0.637-1.378-1.68C469.445,364.651,470.014,363.65,471.361,363.247z"/>
		<path fill-rule="evenodd" clip-rule="evenodd" fill="#282B47" d="M469.554,359.336c0.834,0.148,1.349,0.575,1.262,1.468
			c-0.086,0.896-0.703,1.213-1.513,1.22c-0.879,0.007-1.402-0.397-1.218-1.333C468.239,359.916,468.712,359.396,469.554,359.336z"/>
		<path fill-rule="evenodd" clip-rule="evenodd" fill="#C3A7D0" d="M525.559,408.094c-1.251-2.205-2.773-3.923-4.162-5.212
			c3.138-12.036,10.426-21.312,18.053-30.354c7.68-9.105,17.921-14.157,29.092-17.298c6.367-1.79,12.745-0.621,18.658,2.45
			c1.503,0.78,3.495,1.46,3.604,3.376c0.104,1.818-1.908,2.383-3.187,3.238c-3.366,2.255-7.356,2.684-11.17,3.609
			c-2.632,0.64-5.275,1.233-7.914,1.843c-6.778,1.566-10.24,6.772-13.508,12.229c-2.13,3.558-5.32,5.685-9.334,6.671
			c-1.666,0.41-3.264,1.111-4.938,1.478c-5.845,1.28-8.713,5.522-10.81,10.603C528.876,403.316,527.654,405.824,525.559,408.094z"/>
		<path fill-rule="evenodd" clip-rule="evenodd" fill="#FDFDFD" d="M501.07,488.896c-3.628-2.664-7.256-5.327-10.876-7.984
			c5.625-9.885,7.036-21.309,12.202-31.844c5.322-0.311,10.972-1.667,16.495-4.899c-1.478,16.854-8.898,31.747-12.103,47.777
			c-0.933,0.476-1.748-0.476-2.685-0.402C503.243,490.489,502.895,488.848,501.07,488.896z"/>
		<path fill-rule="evenodd" clip-rule="evenodd" fill="#C3A7D0" d="M501.07,488.896c1.824-0.049,2.173,1.593,3.033,2.647
			c-0.048,2.979,3.954,3.632,3.988,7.044c-9.603,0.068-19.002-0.092-28.229-2.466c-2.402-0.619-1.566-2.605-1.193-3.95
			c1.91-6.877,3.999-13.704,6.039-20.544c0.492-1.648,1.115-3.261,1.551-4.923c1.32-5.034,1.873-5.402,7.61-4.386
			c-0.893,3.162-1.647,6.337-2.697,9.409c-1.082,3.171-1.566,6.432-2.015,9.713c-0.383,2.804,2.102,3.812,3.771,4.276
			C495.786,486.515,497.14,491.146,501.07,488.896z"/>
		<path fill-rule="evenodd" clip-rule="evenodd" fill="#C3A7D0" d="M488.349,444.903c-8.854,6.131-13.319,3.684-20.003-0.631
			c-1.534-0.99-1.328-2.02-0.724-3.422c1.779-4.124,4.48-7.534,8.03-10.952C479.205,435.5,482.443,441.125,488.349,444.903z"/>
		<path fill-rule="evenodd" clip-rule="evenodd" fill="#C3A7D0" d="M529.53,413.8c9.097-4.494,17.086-10.423,25.955-16.348
			c-0.42,7.139-3.426,12.465-7.123,17.505c-0.229,0.313-0.855,0.474-1.296,0.472c-5.181-0.027-10.36-0.095-15.539-0.167
			C530.589,415.249,529.864,414.861,529.53,413.8z"/>
		<path fill-rule="evenodd" clip-rule="evenodd" fill="#C3A7D0" d="M569.088,407.836c2.55,5.026,1.854,7.427-1.772,7.291
			C568.635,412.884,568.974,410.422,569.088,407.836z"/>
		<path fill-rule="evenodd" clip-rule="evenodd" fill="#FDFDFD" d="M523.342,326.349c7.296,5.277,9.331,5.332,14.764,0.536
			c-2.396-0.765-2.396-0.765-4.409-3.06c4.707-1.773,2.629-3.95-0.032-6.31c2.801-1.681,3.579-3.699,0.772-5.954
			c0.954-0.691,1.694-1.228,2.378-1.724c-0.629-2.879-7.318-2.242-10.452,0.899c-1.003,1.006-1.797,2.22-2.768,3.44
			c-1.957-1.515-1.731-2.853-0.517-4.481c5.669-7.599,14.58-6.666,18.735,1.788c2.921,5.943,2.507,11.602-0.469,17.216
			c-4.023,7.595-13.451,8.279-18.596,1.437C521.616,328.632,521.616,328.632,523.342,326.349z"/>
		<path fill-rule="evenodd" clip-rule="evenodd" fill="#C3A7D0" d="M496.953,337.398c11.888,2.516,14.959,1.865,22.995-5.284
			c4.027,4.647,9.167,6.209,15.209,4.815c-0.602,3.911-4.822,7.883-9.876,9.285C513.946,349.36,504.945,344.924,496.953,337.398z"/>
		<path fill-rule="evenodd" clip-rule="evenodd" fill="#FDFDFD" d="M501.16,346.611c4.542,1.707,8.829,4.205,13.842,4.457
			c6.109,0.308,12.018-0.216,17.146-4.401c-0.016,6.197-2.339,8.277-8.185,9.493c-5.837,1.214-11.205,0.193-16.646-1.556
			c-3.968-1.276-5.86-4.028-6.095-8.076L501.16,346.611z"/>
		<path fill-rule="evenodd" clip-rule="evenodd" fill="#C3A7D0" d="M538.759,335.913c2.168-3.031,6.133-4.321,5.916-8.665
			c-0.031-0.633,1.541-1.743,2.974-1.014c2.927,1.492,4.56,3.659,4.029,7.108c-0.463,3.014-2.838,3.418-5.169,3.74
			C543.931,337.439,541.365,337.338,538.759,335.913z"/>
		<path fill-rule="evenodd" clip-rule="evenodd" fill="#FDFDFD" d="M501.222,346.528c-0.163-0.025-0.326-0.05-0.489-0.076
			c0.035-0.104,0.07-0.208,0.104-0.312c0.107,0.157,0.215,0.313,0.322,0.47C501.16,346.611,501.222,346.528,501.222,346.528z"/>
		<path fill-rule="evenodd" clip-rule="evenodd" fill="#C3A7D0" d="M490.157,423.211c5.324-3.013,10.63,1.507,11.739,9.645
			C497.914,433.083,493.611,429.583,490.157,423.211z"/>
		<path fill-rule="evenodd" clip-rule="evenodd" fill="#282B47" d="M509.613,310.018c-2.944,2.843,1.845,6.758-2.626,8.483
			c5.688,4.115,5.712,5.093,0.378,7.642c1.457,3.472,3.963,1.788,7.092,0.77c-1.672,3.307-3.564,5.165-6.273,5.734
			c-3.1,0.652-6.11,0.117-8.424-2.41c-4.486-4.9-4.569-13.743-0.139-18.639C502.327,308.607,505.613,309.25,509.613,310.018z"/>
	</g>
</g>
</svg>
